<svg version="1.1" id="Layer_1" xmlns="http://www.w3.org/2000/svg" xmlns:xlink="http://www.w3.org/1999/xlink" x="0px" y="0px"
	 width="100%" viewBox="0 0 1024 1024" enable-background="new 0 0 1024 1024" xml:space="preserve">
<defs>
	<linearGradient id="brandGradient" x1="0%" y1="0%" x2="100%" y2="0%">
		<stop offset="0%" style="stop-color:#F0492E;stop-opacity:1" />
		<stop offset="50%" style="stop-color:#FB802B;stop-opacity:1" />
		<stop offset="100%" style="stop-color:#F7542E;stop-opacity:1" />
	</linearGradient>
</defs>
<path fill="url(#brandGradient)" opacity="1.000000" stroke="none" 
	d="
M542.636719,526.459595 
	C560.986145,534.246887 577.063538,531.242126 591.121521,517.504089 
	C602.137390,506.738922 610.602661,493.878937 620.177979,481.928345 
	C630.589294,468.934509 640.150818,455.244659 651.684265,443.165100 
	C659.931091,434.527802 669.776367,429.821564 681.997498,430.615265 
	C686.770752,430.925232 691.580933,430.665985 696.067139,430.665985 
	C697.263916,432.471008 696.179443,433.271759 695.530396,434.179077 
	C661.903320,481.187439 628.347107,528.246765 594.612122,575.177612 
	C578.865967,597.083069 562.841919,618.790222 546.817871,640.494263 
	C531.508911,661.229797 507.093933,666.231140 485.403412,653.370361 
	C479.647675,649.957703 475.494324,645.033386 471.676117,639.745483 
	C422.521362,571.670166 373.380890,503.584503 324.254089,435.489044 
	C323.420349,434.333374 322.081696,433.337982 322.497375,431.525024 
	C324.055298,430.149261 325.962921,430.702728 327.710388,430.700775 
	C360.038879,430.664642 392.368591,430.836670 424.695465,430.603455 
	C442.823212,430.472687 458.152557,437.018311 471.458191,448.816223 
	C485.902039,461.623413 496.484802,477.769775 508.714661,492.490631 
	C515.205627,500.303680 521.237732,508.505585 528.483643,515.675903 
	C532.646423,519.795288 537.088989,523.543335 542.636719,526.459595 
M452.839630,544.693726 
	C471.838226,570.476929 490.836792,596.260071 510.311676,622.689697 
	C519.754700,610.219910 528.392822,598.833130 537.002380,587.424805 
	C538.515137,585.420349 537.490051,583.757935 536.227417,582.024536 
	C520.435059,560.344421 504.598602,538.695801 487.157532,518.290344 
	C479.294373,509.090759 469.097778,503.806427 457.359497,501.253693 
	C447.998474,499.217987 438.513794,499.287262 429.025146,499.410492 
	C426.789093,499.439545 423.957947,498.527771 422.658264,501.056213 
	C421.355225,503.591095 423.729828,505.382019 425.048309,507.174805 
	C434.127319,519.519775 443.286713,531.805603 452.839630,544.693726 
z"/>
<path fill="url(#brandGradient)" opacity="1.000000" stroke="none" 
	d="
M614.426025,420.215149 
	C611.616150,439.891083 595.174438,452.451935 574.222900,451.320770 
	C556.898254,450.385437 542.635803,434.284576 541.548645,416.158356 
	C539.896362,388.611816 567.793213,367.968231 594.664734,380.693909 
	C608.789856,387.383209 616.732239,403.019135 614.426025,420.215149 
z"/>
</svg>